<?xml version="1.0" standalone="no"?>
<!DOCTYPE svg PUBLIC "-//W3C//DTD SVG 20010904//EN"
 "http://www.w3.org/TR/2001/REC-SVG-20010904/DTD/svg10.dtd">
<svg version="1.0" xmlns="http://www.w3.org/2000/svg"
 width="451.000000pt" height="451.000000pt" viewBox="0 0 451.000000 451.000000"
 preserveAspectRatio="xMidYMid meet">

<g transform="translate(0.000000,451.000000) scale(0.100000,-0.100000)"
fill="#000000" stroke="none">
<path d="M2025 4004 c-11 -3 -67 -14 -125 -25 -576 -113 -1064 -494 -1320
-1031 -124 -262 -180 -507 -180 -798 0 -684 379 -1319 980 -1643 185 -100 393
-170 596 -202 155 -25 513 -17 667 14 363 73 737 286 992 564 410 448 578
1060 455 1655 -61 293 -221 612 -422 842 -268 307 -619 509 -1048 605 -56 13
-137 18 -325 20 -137 2 -259 2 -270 -1z m361 -314 c175 -15 401 -67 411 -96 2
-5 -30 -42 -70 -82 -69 -69 -75 -72 -101 -62 -66 25 -161 7 -219 -41 -77 -64
-105 -169 -68 -255 73 -164 266 -199 381 -68 58 66 75 147 49 223 -10 29 -9
35 17 62 15 16 31 29 34 29 4 0 15 -39 25 -86 47 -224 201 -422 410 -527 62
-31 178 -67 215 -67 42 0 46 -18 13 -52 -26 -25 -34 -28 -51 -19 -30 16 -127
13 -170 -5 -181 -75 -181 -343 0 -418 21 -9 60 -16 88 -16 94 0 164 46 206
135 26 56 30 98 12 157 l-12 39 77 77 c42 42 79 73 83 69 14 -14 64 -215 80
-321 21 -142 14 -387 -15 -524 -26 -121 -60 -222 -75 -222 -6 0 -42 31 -80 69
l-68 69 12 52 c36 149 -67 280 -220 280 -220 0 -308 -272 -132 -406 50 -39
115 -52 187 -36 48 10 51 9 80 -19 25 -25 28 -31 15 -39 -8 -5 -25 -10 -36
-10 -40 0 -158 -41 -239 -83 -59 -31 -102 -64 -166 -127 -120 -119 -184 -234
-218 -394 l-17 -79 -34 30 -33 30 13 46 c54 195 -151 359 -328 262 -62 -34
-99 -84 -113 -156 -19 -92 16 -175 99 -234 39 -27 52 -30 115 -30 40 0 82 4
93 8 18 6 34 -4 93 -62 39 -38 71 -73 71 -79 0 -5 -11 -14 -23 -19 -36 -17
-223 -62 -302 -73 -119 -16 -340 -12 -467 9 -116 20 -278 66 -278 79 0 4 33
40 73 80 71 71 73 72 107 62 92 -26 179 -2 242 68 42 47 52 84 46 180 -4 83
-36 130 -112 169 -133 68 -284 0 -327 -145 -10 -35 -10 -56 0 -104 12 -60 12
-61 -15 -89 -15 -16 -30 -27 -32 -24 -3 3 -16 47 -28 97 -38 152 -92 247 -204
359 -81 82 -109 103 -190 143 -52 25 -134 56 -182 68 -49 12 -88 24 -88 28 0
3 13 19 29 34 27 26 33 27 62 17 81 -28 179 -3 235 61 101 115 75 282 -55 350
-178 93 -373 -54 -329 -250 l11 -53 -75 -76 -76 -76 -15 29 c-23 44 -65 228
-77 329 -23 205 -4 430 50 611 16 53 33 100 37 105 4 4 41 -24 82 -63 l74 -71
-11 -61 c-28 -153 70 -276 218 -276 180 0 288 195 193 349 -39 62 -113 101
-195 101 -33 0 -69 -5 -80 -11 -17 -9 -25 -6 -52 20 -26 27 -29 33 -16 41 8 5
25 10 36 10 39 0 158 41 236 82 131 68 265 208 332 347 14 30 36 95 48 145 11
50 24 94 28 99 3 4 18 -6 34 -22 27 -28 27 -29 15 -94 -11 -58 -10 -71 6 -112
63 -166 256 -211 379 -89 48 48 68 107 60 178 -4 34 -12 72 -19 86 -20 37 -75
87 -117 104 -43 18 -124 21 -164 6 -26 -10 -32 -7 -103 64 -49 49 -72 79 -66
85 13 13 164 56 246 71 35 7 105 15 154 20 50 4 97 8 106 9 9 0 74 -4 145 -9z
m-341 -395 c43 -43 31 -111 -26 -140 -89 -47 -171 76 -97 145 32 29 92 27 123
-5z m570 0 c45 -44 29 -116 -31 -141 -90 -38 -164 76 -94 146 29 29 94 27 125
-5z m-1367 -802 c42 -46 25 -114 -35 -139 -31 -14 -38 -13 -71 3 -26 13 -39
28 -46 50 -26 94 86 158 152 86z m2137 23 c76 -32 76 -130 -1 -162 -29 -12
-39 -12 -68 0 -75 31 -77 129 -3 161 40 18 32 17 72 1z m-2144 -585 c58 -59
24 -151 -56 -151 -43 0 -95 45 -95 82 0 34 22 71 50 85 40 20 69 15 101 -16z
m2177 -6 c27 -32 29 -84 4 -115 -12 -15 -33 -24 -63 -27 -38 -4 -48 -2 -72 22
-38 39 -37 87 3 127 27 26 36 30 68 25 22 -4 46 -17 60 -32z m-1370 -801 c49
-56 9 -144 -65 -144 -43 0 -93 46 -93 85 0 84 102 122 158 59z m570 0 c49 -56
9 -144 -65 -144 -43 0 -93 46 -93 85 0 84 102 122 158 59z"/>
<path d="M2017 2423 c-4 -3 -7 -145 -7 -315 l0 -308 75 0 75 0 0 95 c0 93 1
96 26 105 14 6 60 10 102 10 92 0 147 22 185 71 64 86 60 202 -10 280 -51 57
-103 69 -288 69 -83 0 -155 -3 -158 -7z m328 -158 c30 -29 32 -64 6 -96 -17
-22 -27 -24 -103 -24 l-83 0 -3 59 c-4 86 -4 86 83 86 67 0 79 -3 100 -25z"/>
</g>
</svg>
